# xmcd
#
# Track frame offsets: 
#        150
#        6259
#        23114
#        54734
#        78690
#        99989
#        126565
#        145500
#        164030
#        186292
#
# Disc length: 2611 seconds
#
# Revision: 0
# Processed by: cddbd v1.5.2PL0 Copyright (c) Steve Scherf et al.
# Submitted via: ExactAudioCopyFreeDBPlugin 1.0
#
DISCID=890a310a
DTITLE=Warlord - We Die As One
DYEAR=2014
DGENRE=Death Metal
TTITLE0=Worlds Collide (Intro)
TTITLE1=Human Inner Core
TTITLE2=Masses Gather In Masses
TTITLE3=Insurgents Breed
TTITLE4=Strength Defeats Decay
TTITLE5=Last Of Our Legacy
TTITLE6=Age Of Extreme
TTITLE7=Knights Of The Godless
TTITLE8=We Die As One
TTITLE9=Remember Them (Outro)
EXTD=
EXTT0=
EXTT1=
EXTT2=
EXTT3=
EXTT4=
EXTT5=
EXTT6=
EXTT7=
EXTT8=
EXTT9=
PLAYORDER=
